HIERARCHY
ROOT Hips
{
	OFFSET -0.179506 -22.333345 2.821913
	CHANNELS 6 Xposition Yposition Zposition Zrotation Yrotation Xrotation 
	JOINT LeftUpLeg
	{
		OFFSET 6.951974 -9.140623 -0.681533
		CHANNELS 3 Zrotation Yrotation Xrotation
		JOINT LeftLeg
		{
			OFFSET 3.427654 -37.519855 -0.449580
			CHANNELS 3 Zrotation Yrotation Xrotation
			JOINT LeftFoot
			{
				OFFSET -1.359570 -39.796059 -4.369333
				CHANNELS 3 Zrotation Yrotation Xrotation
				JOINT LeftToe
				{
					OFFSET 2.635814 -5.579078 11.928840
					CHANNELS 3 Zrotation Yrotation Xrotation
					End Site
					{
						OFFSET 0.000000 0.000000 0.000000
					}
				}
			}
		}
	}
	JOINT RightUpLeg
	{
		OFFSET -6.767048 -9.052170 -0.431982
		CHANNELS 3 Zrotation Yrotation Xrotation
		JOINT RightLeg
		{
			OFFSET -3.829005 -38.256897 -0.885003
			CHANNELS 3 Zrotation Yrotation Xrotation
			JOINT RightFoot
			{
				OFFSET 1.577377 -39.841461 -4.231180
				CHANNELS 3 Zrotation Yrotation Xrotation
				JOINT RightToe
				{
					OFFSET -2.537174 -4.814398 12.334795
					CHANNELS 3 Zrotation Yrotation Xrotation
					End Site
					{
						OFFSET 0.000000 0.000000 0.000000
					}
				}
			}
		}
	}
	JOINT Spine
	{
		OFFSET -0.253288 10.896323 -2.669631
		CHANNELS 3 Zrotation Yrotation Xrotation
		JOINT Spine1
		{
			OFFSET 0.548704 13.518043 0.109247
			CHANNELS 3 Zrotation Yrotation Xrotation
			JOINT Spine2
			{
				OFFSET 0.145701 5.292222 2.542457
				CHANNELS 3 Zrotation Yrotation Xrotation
				JOINT Neck
				{
					OFFSET -0.277840 21.387037 -4.285703
					CHANNELS 3 Zrotation Yrotation Xrotation
					JOINT Head
					{
						OFFSET 0.515184 6.496960 5.134897
						CHANNELS 3 Zrotation Yrotation Xrotation
						End Site
						{
							OFFSET 0.000000 0.000000 0.000000
						}
					}
				}
				JOINT LeftShoulder
				{
					OFFSET 7.884473 12.174932 -3.408961
					CHANNELS 3 Zrotation Yrotation Xrotation
					JOINT LeftArm
					{
						OFFSET 9.097692 3.046888 -0.886815
						CHANNELS 3 Zrotation Yrotation Xrotation
						JOINT LeftForeArm
						{
							OFFSET 25.961220 -1.277207 -2.745643
							CHANNELS 3 Zrotation Yrotation Xrotation
							JOINT LeftHand
							{
								OFFSET 24.923361 0.898606 -0.117091
								CHANNELS 3 Zrotation Yrotation Xrotation
								End Site
								{
									OFFSET 0.000000 0.000000 0.000000
								}
							}
						}
					}
				}
				JOINT RightShoulder
				{
					OFFSET -8.175920 11.883285 -3.861528
					CHANNELS 3 Zrotation Yrotation Xrotation
					JOINT RightArm
					{
						OFFSET -9.601238 3.255117 -0.914307
						CHANNELS 3 Zrotation Yrotation Xrotation
						JOINT RightForeArm
						{
							OFFSET -25.374195 -1.332924 -2.140099
							CHANNELS 3 Zrotation Yrotation Xrotation
							JOINT RightHand
							{
								OFFSET -25.529810 0.777228 -0.555919
								CHANNELS 3 Zrotation Yrotation Xrotation
								End Site
								{
									OFFSET 0.000000 0.000000 0.000000
								}
							}
						}
					}
				}
			}
		}
	}
}
MOTION
Frames: 6
Frame Time: 0.033333
-381.061157 288.368073 85.463448 -140.913680 0.217728 84.493916 7.144374 -4.445759 -26.952836 -16.654095 -4.660930 51.485598 8.533909 17.090166 -37.882311 nan nan nan -9.204089 0.525595 -36.845436 6.443761 -7.970115 86.950471 0.667356 -4.177003 -19.678235 nan nan nan -2.594618 -0.234378 19.040718 3.319243 -2.508575 9.502184 -0.221278 -0.490181 -5.529989 -2.708592 -6.115785 -0.825492 5.534220 -3.912354 -9.474024 -27.996512 -1.894006 6.726688 -53.811631 7.444826 18.522127 1.310279 -43.399968 18.164246 9.759001 -20.429584 -4.826107 27.515464 9.159918 6.690522 48.250103 -3.556511 8.908372 -10.874365 57.480963 -5.392485 -21.178013 20.948942 -33.046885 
-380.542267 287.706726 85.064484 -140.933545 0.198719 84.292544 7.020905 -4.758716 -27.381497 -16.964855 -4.994256 51.879722 8.516507 16.438016 -37.471724 nan nan nan -10.148293 0.041279 -35.128312 3.547688 -7.390539 87.089663 0.634923 -7.296153 -19.329551 nan nan nan -2.382760 -0.238098 18.814569 3.229455 -2.517708 8.513226 -0.355674 -0.284717 -5.169573 -2.318837 -6.673651 -0.154783 5.466170 -3.746380 -9.135921 -27.612574 -1.014219 6.306844 -54.340130 8.134274 18.733217 1.181669 -44.128481 19.522931 10.170979 -20.463927 -6.024650 26.683724 8.628705 5.939232 48.611544 -3.366835 9.342044 -10.904374 58.796233 -4.252979 -21.623844 21.046604 -33.389411 
-379.845337 287.022736 84.821571 -140.907587 0.210018 83.612761 7.304594 -4.329804 -27.036422 -16.810570 -4.771955 51.165227 8.758539 16.879368 -38.103518 nan nan nan -10.745894 0.061803 -32.639843 3.812529 -6.576891 88.946710 0.954322 -7.056834 -20.361242 nan nan nan -2.204265 -0.014184 18.079835 3.187012 -2.750266 9.387900 -0.469454 -0.177279 -4.881289 -2.051868 -6.980190 0.270625 5.336811 -3.713725 -9.407545 -27.555114 -1.352506 6.684886 -54.608550 8.792001 18.498259 0.172965 -46.713181 20.971517 10.453941 -20.472871 -7.016838 26.210453 9.121155 6.199875 48.297991 -3.018836 9.097241 -11.066920 61.229035 -4.280135 -21.947044 21.035267 -34.400903 
-379.106232 286.339264 84.560425 -140.881216 0.202415 83.625865 8.278958 -2.799669 -27.477998 -15.633188 -2.986764 49.514188 9.023873 17.774929 -38.303554 nan nan nan -11.319375 0.291418 -30.623944 3.949926 -5.455577 89.607601 1.706575 -6.506871 -18.329534 nan nan nan -2.505056 -0.348715 18.304347 3.172641 -3.781779 9.887615 -0.608294 -0.720939 -4.547881 -0.755734 -7.995408 -2.627235 5.570085 -2.600631 -9.588019 -28.889493 -1.601833 8.235086 -54.886644 12.650354 18.552932 -4.744137 -49.344451 26.096313 10.675217 -20.141351 -9.752895 26.715351 9.640416 6.398624 46.395704 -1.568724 8.972034 -7.596624 64.540690 -1.157882 -22.162517 20.928809 -34.141813 
-378.332825 285.301941 84.285332 -139.150471 0.842351 83.136275 9.811634 1.117890 -27.159242 -11.972394 1.880763 45.499736 8.973029 20.695343 -37.805206 nan nan nan -11.848938 -0.534352 -27.756343 3.922335 -5.512150 90.628205 2.337571 -5.741870 -18.624137 nan nan nan -1.530441 0.250388 18.776196 3.593052 -3.096328 8.914263 -0.210525 -1.225103 -3.580721 1.031742 -7.079589 -3.799865 3.549743 -5.125985 -8.751287 -27.086607 -1.315943 5.484616 -55.548123 9.161302 14.526971 7.863829 -41.506704 10.375401 10.883525 -18.939070 -9.491898 24.981701 8.154072 3.641624 46.888472 -3.372189 9.082825 -7.531277 67.781976 -0.078194 -20.932942 21.391474 -33.899403 
-377.828644 285.165283 84.048409 -140.909033 1.513664 82.375551 8.613731 -3.954138 -24.158934 -13.060442 -3.409699 45.273334 7.557139 13.807214 -16.016300 nan nan nan -11.203724 1.206398 -24.506041 3.518727 -4.770221 90.682673 0.269705 -5.761879 -18.608103 nan nan nan -0.346921 0.973111 16.696281 2.925626 -2.276268 11.034236 -0.050072 -0.633931 -3.920484 -0.441504 -8.402056 -1.824437 4.839340 -4.493335 -9.374941 -27.547641 -1.982254 6.100278 -55.688219 11.469975 14.255351 6.820552 -40.662436 12.645366 12.132458 -19.233093 -10.032637 24.375345 8.273306 4.524855 46.437513 -4.235731 8.448173 -7.053350 71.153696 -1.302982 -20.228856 23.274437 -32.645618 
